<svg xmlns="http://www.w3.org/2000/svg" version="1.1" xmlns:xlink="http://www.w3.org/1999/xlink" xmlns:svgjs="http://svgjs.com/svgjs" width="2048" height="1080" preserveAspectRatio="none" viewBox="0 0 2048 1080"><g mask="url(&quot;#SvgjsMask1110&quot;)" fill="none"><rect width="2048" height="1080" x="0" y="0" fill="#0e2a47"></rect><path d="M146.97 372.93L235.3 423.93L235.3 525.93L146.97 576.93L58.63 525.93L58.63 423.93zM58.63 525.93L146.97 576.93L146.97 678.93L58.63 729.93L-29.71 678.93L-29.71 576.93zM323.64 372.93L411.98 423.93L411.98 525.93L323.64 576.93L235.3 525.93L235.3 423.93zM323.64 678.93L411.98 729.93L411.98 831.93L323.64 882.93L235.3 831.93L235.3 729.93zM500.32 66.93L588.65 117.93L588.65 219.93L500.32 270.93L411.98 219.93L411.98 117.93zM500.32 678.93L588.65 729.93L588.65 831.93L500.32 882.93L411.98 831.93L411.98 729.93zM588.65 -86.07L676.99 -35.07L676.99 66.93L588.65 117.93L500.32 66.93L500.32 -35.07zM588.65 831.93L676.99 882.93L676.99 984.93L588.65 1035.93L500.32 984.93L500.32 882.93zM765.33 -86.07L853.66 -35.07L853.66 66.93L765.33 117.93L676.99 66.93L676.99 -35.07zM765.33 525.93L853.66 576.93L853.66 678.93L765.33 729.93L676.99 678.93L676.99 576.93zM765.33 831.93L853.66 882.93L853.66 984.93L765.33 1035.93L676.99 984.93L676.99 882.93zM1030.34 372.93L1118.68 423.93L1118.68 525.93L1030.34 576.93L942 525.93L942 423.93zM942 525.93L1030.34 576.93L1030.34 678.93L942 729.93L853.66 678.93L853.66 576.93zM942 831.93L1030.34 882.93L1030.34 984.93L942 1035.93L853.66 984.93L853.66 882.93zM1030.34 984.93L1118.68 1035.93L1118.68 1137.93L1030.34 1188.93L942 1137.93L942 1035.93zM1118.68 219.93L1207.01 270.93L1207.01 372.93L1118.68 423.93L1030.34 372.93L1030.34 270.93zM1383.69 66.93L1472.02 117.93L1472.02 219.93L1383.69 270.93L1295.35 219.93L1295.35 117.93zM1295.35 219.93L1383.69 270.93L1383.69 372.93L1295.35 423.93L1207.01 372.93L1207.01 270.93zM1472.02 -86.07L1560.36 -35.07L1560.36 66.93L1472.02 117.93L1383.69 66.93L1383.69 -35.07zM1472.02 831.93L1560.36 882.93L1560.36 984.93L1472.02 1035.93L1383.69 984.93L1383.69 882.93zM1560.36 984.93L1648.7 1035.93L1648.7 1137.93L1560.36 1188.93L1472.02 1137.93L1472.02 1035.93zM1648.7 -86.07L1737.03 -35.07L1737.03 66.93L1648.7 117.93L1560.36 66.93L1560.36 -35.07zM1737.03 66.93L1825.37 117.93L1825.37 219.93L1737.03 270.93L1648.7 219.93L1648.7 117.93zM1737.03 372.93L1825.37 423.93L1825.37 525.93L1737.03 576.93L1648.7 525.93L1648.7 423.93zM1737.03 984.93L1825.37 1035.93L1825.37 1137.93L1737.03 1188.93L1648.7 1137.93L1648.7 1035.93zM1825.37 -86.07L1913.71 -35.07L1913.71 66.93L1825.37 117.93L1737.03 66.93L1737.03 -35.07zM1825.37 525.93L1913.71 576.93L1913.71 678.93L1825.37 729.93L1737.03 678.93L1737.03 576.93zM2090.38 66.93L2178.72 117.93L2178.72 219.93L2090.38 270.93L2002.05 219.93L2002.05 117.93zM2002.05 219.93L2090.38 270.93L2090.38 372.93L2002.05 423.93L1913.71 372.93L1913.71 270.93z" stroke="#03305d" stroke-width="2"></path><path d="M136.77 372.93 a10.2 10.2 0 1 0 20.4 0 a10.2 10.2 0 1 0 -20.4 0zM225.1 423.93 a10.2 10.2 0 1 0 20.4 0 a10.2 10.2 0 1 0 -20.4 0zM225.1 525.93 a10.2 10.2 0 1 0 20.4 0 a10.2 10.2 0 1 0 -20.4 0zM136.77 576.93 a10.2 10.2 0 1 0 20.4 0 a10.2 10.2 0 1 0 -20.4 0zM48.43 525.93 a10.2 10.2 0 1 0 20.4 0 a10.2 10.2 0 1 0 -20.4 0zM48.43 423.93 a10.2 10.2 0 1 0 20.4 0 a10.2 10.2 0 1 0 -20.4 0zM136.77 678.93 a10.2 10.2 0 1 0 20.4 0 a10.2 10.2 0 1 0 -20.4 0zM48.43 729.93 a10.2 10.2 0 1 0 20.4 0 a10.2 10.2 0 1 0 -20.4 0zM-39.91 678.93 a10.2 10.2 0 1 0 20.4 0 a10.2 10.2 0 1 0 -20.4 0zM-39.91 576.93 a10.2 10.2 0 1 0 20.4 0 a10.2 10.2 0 1 0 -20.4 0zM313.44 372.93 a10.2 10.2 0 1 0 20.4 0 a10.2 10.2 0 1 0 -20.4 0zM401.78 423.93 a10.2 10.2 0 1 0 20.4 0 a10.2 10.2 0 1 0 -20.4 0zM401.78 525.93 a10.2 10.2 0 1 0 20.4 0 a10.2 10.2 0 1 0 -20.4 0zM313.44 576.93 a10.2 10.2 0 1 0 20.4 0 a10.2 10.2 0 1 0 -20.4 0zM313.44 678.93 a10.2 10.2 0 1 0 20.4 0 a10.2 10.2 0 1 0 -20.4 0zM401.78 729.93 a10.2 10.2 0 1 0 20.4 0 a10.2 10.2 0 1 0 -20.4 0zM401.78 831.93 a10.2 10.2 0 1 0 20.4 0 a10.2 10.2 0 1 0 -20.4 0zM313.44 882.93 a10.2 10.2 0 1 0 20.4 0 a10.2 10.2 0 1 0 -20.4 0zM225.1 831.93 a10.2 10.2 0 1 0 20.4 0 a10.2 10.2 0 1 0 -20.4 0zM225.1 729.93 a10.2 10.2 0 1 0 20.4 0 a10.2 10.2 0 1 0 -20.4 0zM490.12 66.93 a10.2 10.2 0 1 0 20.4 0 a10.2 10.2 0 1 0 -20.4 0zM578.45 117.93 a10.2 10.2 0 1 0 20.4 0 a10.2 10.2 0 1 0 -20.4 0zM578.45 219.93 a10.2 10.2 0 1 0 20.4 0 a10.2 10.2 0 1 0 -20.4 0zM490.12 270.93 a10.2 10.2 0 1 0 20.4 0 a10.2 10.2 0 1 0 -20.4 0zM401.78 219.93 a10.2 10.2 0 1 0 20.4 0 a10.2 10.2 0 1 0 -20.4 0zM401.78 117.93 a10.2 10.2 0 1 0 20.4 0 a10.2 10.2 0 1 0 -20.4 0zM490.12 678.93 a10.2 10.2 0 1 0 20.4 0 a10.2 10.2 0 1 0 -20.4 0zM578.45 729.93 a10.2 10.2 0 1 0 20.4 0 a10.2 10.2 0 1 0 -20.4 0zM578.45 831.93 a10.2 10.2 0 1 0 20.4 0 a10.2 10.2 0 1 0 -20.4 0zM490.12 882.93 a10.2 10.2 0 1 0 20.4 0 a10.2 10.2 0 1 0 -20.4 0zM578.45 -86.07 a10.2 10.2 0 1 0 20.4 0 a10.2 10.2 0 1 0 -20.4 0zM666.79 -35.07 a10.2 10.2 0 1 0 20.4 0 a10.2 10.2 0 1 0 -20.4 0zM666.79 66.93 a10.2 10.2 0 1 0 20.4 0 a10.2 10.2 0 1 0 -20.4 0zM490.12 -35.07 a10.2 10.2 0 1 0 20.4 0 a10.2 10.2 0 1 0 -20.4 0zM666.79 882.93 a10.2 10.2 0 1 0 20.4 0 a10.2 10.2 0 1 0 -20.4 0zM666.79 984.93 a10.2 10.2 0 1 0 20.4 0 a10.2 10.2 0 1 0 -20.4 0zM578.45 1035.93 a10.2 10.2 0 1 0 20.4 0 a10.2 10.2 0 1 0 -20.4 0zM490.12 984.93 a10.2 10.2 0 1 0 20.4 0 a10.2 10.2 0 1 0 -20.4 0zM755.13 -86.07 a10.2 10.2 0 1 0 20.4 0 a10.2 10.2 0 1 0 -20.4 0zM843.46 -35.07 a10.2 10.2 0 1 0 20.4 0 a10.2 10.2 0 1 0 -20.4 0zM843.46 66.93 a10.2 10.2 0 1 0 20.4 0 a10.2 10.2 0 1 0 -20.4 0zM755.13 117.93 a10.2 10.2 0 1 0 20.4 0 a10.2 10.2 0 1 0 -20.4 0zM755.13 525.93 a10.2 10.2 0 1 0 20.4 0 a10.2 10.2 0 1 0 -20.4 0zM843.46 576.93 a10.2 10.2 0 1 0 20.4 0 a10.2 10.2 0 1 0 -20.4 0zM843.46 678.93 a10.2 10.2 0 1 0 20.4 0 a10.2 10.2 0 1 0 -20.4 0zM755.13 729.93 a10.2 10.2 0 1 0 20.4 0 a10.2 10.2 0 1 0 -20.4 0zM666.79 678.93 a10.2 10.2 0 1 0 20.4 0 a10.2 10.2 0 1 0 -20.4 0zM666.79 576.93 a10.2 10.2 0 1 0 20.4 0 a10.2 10.2 0 1 0 -20.4 0zM755.13 831.93 a10.2 10.2 0 1 0 20.4 0 a10.2 10.2 0 1 0 -20.4 0zM843.46 882.93 a10.2 10.2 0 1 0 20.4 0 a10.2 10.2 0 1 0 -20.4 0zM843.46 984.93 a10.2 10.2 0 1 0 20.4 0 a10.2 10.2 0 1 0 -20.4 0zM755.13 1035.93 a10.2 10.2 0 1 0 20.4 0 a10.2 10.2 0 1 0 -20.4 0zM1020.14 372.93 a10.2 10.2 0 1 0 20.4 0 a10.2 10.2 0 1 0 -20.4 0zM1108.48 423.93 a10.2 10.2 0 1 0 20.4 0 a10.2 10.2 0 1 0 -20.4 0zM1108.48 525.93 a10.2 10.2 0 1 0 20.4 0 a10.2 10.2 0 1 0 -20.4 0zM1020.14 576.93 a10.2 10.2 0 1 0 20.4 0 a10.2 10.2 0 1 0 -20.4 0zM931.8 525.93 a10.2 10.2 0 1 0 20.4 0 a10.2 10.2 0 1 0 -20.4 0zM931.8 423.93 a10.2 10.2 0 1 0 20.4 0 a10.2 10.2 0 1 0 -20.4 0zM1020.14 678.93 a10.2 10.2 0 1 0 20.4 0 a10.2 10.2 0 1 0 -20.4 0zM931.8 729.93 a10.2 10.2 0 1 0 20.4 0 a10.2 10.2 0 1 0 -20.4 0zM931.8 831.93 a10.2 10.2 0 1 0 20.4 0 a10.2 10.2 0 1 0 -20.4 0zM1020.14 882.93 a10.2 10.2 0 1 0 20.4 0 a10.2 10.2 0 1 0 -20.4 0zM1020.14 984.93 a10.2 10.2 0 1 0 20.4 0 a10.2 10.2 0 1 0 -20.4 0zM931.8 1035.93 a10.2 10.2 0 1 0 20.4 0 a10.2 10.2 0 1 0 -20.4 0zM1108.48 1035.93 a10.2 10.2 0 1 0 20.4 0 a10.2 10.2 0 1 0 -20.4 0zM1108.48 1137.93 a10.2 10.2 0 1 0 20.4 0 a10.2 10.2 0 1 0 -20.4 0zM1020.14 1188.93 a10.2 10.2 0 1 0 20.4 0 a10.2 10.2 0 1 0 -20.4 0zM931.8 1137.93 a10.2 10.2 0 1 0 20.4 0 a10.2 10.2 0 1 0 -20.4 0zM1108.48 219.93 a10.2 10.2 0 1 0 20.4 0 a10.2 10.2 0 1 0 -20.4 0zM1196.81 270.93 a10.2 10.2 0 1 0 20.4 0 a10.2 10.2 0 1 0 -20.4 0zM1196.81 372.93 a10.2 10.2 0 1 0 20.4 0 a10.2 10.2 0 1 0 -20.4 0zM1020.14 270.93 a10.2 10.2 0 1 0 20.4 0 a10.2 10.2 0 1 0 -20.4 0zM1373.49 66.93 a10.2 10.2 0 1 0 20.4 0 a10.2 10.2 0 1 0 -20.4 0zM1461.82 117.93 a10.2 10.2 0 1 0 20.4 0 a10.2 10.2 0 1 0 -20.4 0zM1461.82 219.93 a10.2 10.2 0 1 0 20.4 0 a10.2 10.2 0 1 0 -20.4 0zM1373.49 270.93 a10.2 10.2 0 1 0 20.4 0 a10.2 10.2 0 1 0 -20.4 0zM1285.15 219.93 a10.2 10.2 0 1 0 20.4 0 a10.2 10.2 0 1 0 -20.4 0zM1285.15 117.93 a10.2 10.2 0 1 0 20.4 0 a10.2 10.2 0 1 0 -20.4 0zM1373.49 372.93 a10.2 10.2 0 1 0 20.4 0 a10.2 10.2 0 1 0 -20.4 0zM1285.15 423.93 a10.2 10.2 0 1 0 20.4 0 a10.2 10.2 0 1 0 -20.4 0zM1461.82 -86.07 a10.2 10.2 0 1 0 20.4 0 a10.2 10.2 0 1 0 -20.4 0zM1550.16 -35.07 a10.2 10.2 0 1 0 20.4 0 a10.2 10.2 0 1 0 -20.4 0zM1550.16 66.93 a10.2 10.2 0 1 0 20.4 0 a10.2 10.2 0 1 0 -20.4 0zM1373.49 -35.07 a10.2 10.2 0 1 0 20.4 0 a10.2 10.2 0 1 0 -20.4 0zM1461.82 831.93 a10.2 10.2 0 1 0 20.4 0 a10.2 10.2 0 1 0 -20.4 0zM1550.16 882.93 a10.2 10.2 0 1 0 20.4 0 a10.2 10.2 0 1 0 -20.4 0zM1550.16 984.93 a10.2 10.2 0 1 0 20.4 0 a10.2 10.2 0 1 0 -20.4 0zM1461.82 1035.93 a10.2 10.2 0 1 0 20.4 0 a10.2 10.2 0 1 0 -20.4 0zM1373.49 984.93 a10.2 10.2 0 1 0 20.4 0 a10.2 10.2 0 1 0 -20.4 0zM1373.49 882.93 a10.2 10.2 0 1 0 20.4 0 a10.2 10.2 0 1 0 -20.4 0zM1638.5 1035.93 a10.2 10.2 0 1 0 20.4 0 a10.2 10.2 0 1 0 -20.4 0zM1638.5 1137.93 a10.2 10.2 0 1 0 20.4 0 a10.2 10.2 0 1 0 -20.4 0zM1550.16 1188.93 a10.2 10.2 0 1 0 20.4 0 a10.2 10.2 0 1 0 -20.4 0zM1461.82 1137.93 a10.2 10.2 0 1 0 20.4 0 a10.2 10.2 0 1 0 -20.4 0zM1638.5 -86.07 a10.2 10.2 0 1 0 20.4 0 a10.2 10.2 0 1 0 -20.4 0zM1726.83 -35.07 a10.2 10.2 0 1 0 20.4 0 a10.2 10.2 0 1 0 -20.4 0zM1726.83 66.93 a10.2 10.2 0 1 0 20.4 0 a10.2 10.2 0 1 0 -20.4 0zM1638.5 117.93 a10.2 10.2 0 1 0 20.4 0 a10.2 10.2 0 1 0 -20.4 0zM1815.17 117.93 a10.2 10.2 0 1 0 20.4 0 a10.2 10.2 0 1 0 -20.4 0zM1815.17 219.93 a10.2 10.2 0 1 0 20.4 0 a10.2 10.2 0 1 0 -20.4 0zM1726.83 270.93 a10.2 10.2 0 1 0 20.4 0 a10.2 10.2 0 1 0 -20.4 0zM1638.5 219.93 a10.2 10.2 0 1 0 20.4 0 a10.2 10.2 0 1 0 -20.4 0zM1726.83 372.93 a10.2 10.2 0 1 0 20.4 0 a10.2 10.2 0 1 0 -20.4 0zM1815.17 423.93 a10.2 10.2 0 1 0 20.4 0 a10.2 10.2 0 1 0 -20.4 0zM1815.17 525.93 a10.2 10.2 0 1 0 20.4 0 a10.2 10.2 0 1 0 -20.4 0zM1726.83 576.93 a10.2 10.2 0 1 0 20.4 0 a10.2 10.2 0 1 0 -20.4 0zM1638.5 525.93 a10.2 10.2 0 1 0 20.4 0 a10.2 10.2 0 1 0 -20.4 0zM1638.5 423.93 a10.2 10.2 0 1 0 20.4 0 a10.2 10.2 0 1 0 -20.4 0zM1726.83 984.93 a10.2 10.2 0 1 0 20.4 0 a10.2 10.2 0 1 0 -20.4 0zM1815.17 1035.93 a10.2 10.2 0 1 0 20.4 0 a10.2 10.2 0 1 0 -20.4 0zM1815.17 1137.93 a10.2 10.2 0 1 0 20.4 0 a10.2 10.2 0 1 0 -20.4 0zM1726.83 1188.93 a10.2 10.2 0 1 0 20.4 0 a10.2 10.2 0 1 0 -20.4 0zM1815.17 -86.07 a10.2 10.2 0 1 0 20.4 0 a10.2 10.2 0 1 0 -20.4 0zM1903.51 -35.07 a10.2 10.2 0 1 0 20.4 0 a10.2 10.2 0 1 0 -20.4 0zM1903.51 66.93 a10.2 10.2 0 1 0 20.4 0 a10.2 10.2 0 1 0 -20.4 0zM1903.51 576.93 a10.2 10.2 0 1 0 20.4 0 a10.2 10.2 0 1 0 -20.4 0zM1903.51 678.93 a10.2 10.2 0 1 0 20.4 0 a10.2 10.2 0 1 0 -20.4 0zM1815.17 729.93 a10.2 10.2 0 1 0 20.4 0 a10.2 10.2 0 1 0 -20.4 0zM1726.83 678.93 a10.2 10.2 0 1 0 20.4 0 a10.2 10.2 0 1 0 -20.4 0zM2080.18 66.93 a10.2 10.2 0 1 0 20.4 0 a10.2 10.2 0 1 0 -20.4 0zM2168.52 117.93 a10.2 10.2 0 1 0 20.4 0 a10.2 10.2 0 1 0 -20.4 0zM2168.52 219.93 a10.2 10.2 0 1 0 20.4 0 a10.2 10.2 0 1 0 -20.4 0zM2080.18 270.93 a10.2 10.2 0 1 0 20.4 0 a10.2 10.2 0 1 0 -20.4 0zM1991.85 219.93 a10.2 10.2 0 1 0 20.4 0 a10.2 10.2 0 1 0 -20.4 0zM1991.85 117.93 a10.2 10.2 0 1 0 20.4 0 a10.2 10.2 0 1 0 -20.4 0zM2080.18 372.93 a10.2 10.2 0 1 0 20.4 0 a10.2 10.2 0 1 0 -20.4 0zM1991.85 423.93 a10.2 10.2 0 1 0 20.4 0 a10.2 10.2 0 1 0 -20.4 0zM1903.51 372.93 a10.2 10.2 0 1 0 20.4 0 a10.2 10.2 0 1 0 -20.4 0zM1903.51 270.93 a10.2 10.2 0 1 0 20.4 0 a10.2 10.2 0 1 0 -20.4 0z" fill="#03305d"></path><path d="M61.38 287.65L99.48 309.65L99.48 353.65L61.38 375.65L23.27 353.65L23.27 309.65zM23.27 485.65L61.38 507.65L61.38 551.65L23.27 573.65L-14.84 551.65L-14.84 507.65zM99.48 485.65L137.59 507.65L137.59 551.65L99.48 573.65L61.38 551.65L61.38 507.65zM137.59 551.65L175.69 573.65L175.69 617.65L137.59 639.65L99.48 617.65L99.48 573.65zM137.59 683.65L175.69 705.65L175.69 749.65L137.59 771.65L99.48 749.65L99.48 705.65zM213.8 23.65L251.91 45.65L251.91 89.65L213.8 111.65L175.69 89.65L175.69 45.65zM175.69 353.65L213.8 375.65L213.8 419.65L175.69 441.65L137.59 419.65L137.59 375.65zM213.8 551.65L251.91 573.65L251.91 617.65L213.8 639.65L175.69 617.65L175.69 573.65zM366.23 287.65L404.33 309.65L404.33 353.65L366.23 375.65L328.12 353.65L328.12 309.65zM404.33 89.65L442.44 111.65L442.44 155.65L404.33 177.65L366.23 155.65L366.23 111.65zM442.44 815.65L480.54 837.65L480.54 881.65L442.44 903.65L404.33 881.65L404.33 837.65zM442.44 947.65L480.54 969.65L480.54 1013.65L442.44 1035.65L404.33 1013.65L404.33 969.65zM518.65 23.65L556.76 45.65L556.76 89.65L518.65 111.65L480.54 89.65L480.54 45.65zM518.65 683.65L556.76 705.65L556.76 749.65L518.65 771.65L480.54 749.65L480.54 705.65zM480.54 881.65L518.65 903.65L518.65 947.65L480.54 969.65L442.44 947.65L442.44 903.65zM594.86 23.65L632.97 45.65L632.97 89.65L594.86 111.65L556.76 89.65L556.76 45.65zM594.86 815.65L632.97 837.65L632.97 881.65L594.86 903.65L556.76 881.65L556.76 837.65zM632.97 881.65L671.08 903.65L671.08 947.65L632.97 969.65L594.86 947.65L594.86 903.65zM747.29 287.65L785.39 309.65L785.39 353.65L747.29 375.65L709.18 353.65L709.18 309.65zM709.18 485.65L747.29 507.65L747.29 551.65L709.18 573.65L671.08 551.65L671.08 507.65zM747.29 551.65L785.39 573.65L785.39 617.65L747.29 639.65L709.18 617.65L709.18 573.65zM785.39 -42.35L823.5 -20.35L823.5 23.65L785.39 45.65L747.29 23.65L747.29 -20.35zM823.5 155.65L861.61 177.65L861.61 221.65L823.5 243.65L785.39 221.65L785.39 177.65zM785.39 353.65L823.5 375.65L823.5 419.65L785.39 441.65L747.29 419.65L747.29 375.65zM861.61 89.65L899.71 111.65L899.71 155.65L861.61 177.65L823.5 155.65L823.5 111.65zM861.61 353.65L899.71 375.65L899.71 419.65L861.61 441.65L823.5 419.65L823.5 375.65zM861.61 749.65L899.71 771.65L899.71 815.65L861.61 837.65L823.5 815.65L823.5 771.65zM899.71 947.65L937.82 969.65L937.82 1013.65L899.71 1035.65L861.61 1013.65L861.61 969.65zM937.82 89.65L975.92 111.65L975.92 155.65L937.82 177.65L899.71 155.65L899.71 111.65zM937.82 617.65L975.92 639.65L975.92 683.65L937.82 705.65L899.71 683.65L899.71 639.65zM975.92 683.65L1014.03 705.65L1014.03 749.65L975.92 771.65L937.82 749.65L937.82 705.65zM975.92 815.65L1014.03 837.65L1014.03 881.65L975.92 903.65L937.82 881.65L937.82 837.65zM1052.14 23.65L1090.24 45.65L1090.24 89.65L1052.14 111.65L1014.03 89.65L1014.03 45.65zM1014.03 485.65L1052.14 507.65L1052.14 551.65L1014.03 573.65L975.92 551.65L975.92 507.65zM1166.46 881.65L1204.56 903.65L1204.56 947.65L1166.46 969.65L1128.35 947.65L1128.35 903.65zM1242.67 353.65L1280.77 375.65L1280.77 419.65L1242.67 441.65L1204.56 419.65L1204.56 375.65zM1242.67 485.65L1280.77 507.65L1280.77 551.65L1242.67 573.65L1204.56 551.65L1204.56 507.65zM1242.67 1013.65L1280.77 1035.65L1280.77 1079.65L1242.67 1101.65L1204.56 1079.65L1204.56 1035.65zM1356.99 23.65L1395.09 45.65L1395.09 89.65L1356.99 111.65L1318.88 89.65L1318.88 45.65zM1318.88 1013.65L1356.99 1035.65L1356.99 1079.65L1318.88 1101.65L1280.77 1079.65L1280.77 1035.65zM1395.09 749.65L1433.2 771.65L1433.2 815.65L1395.09 837.65L1356.99 815.65L1356.99 771.65zM1471.31 -42.35L1509.41 -20.35L1509.41 23.65L1471.31 45.65L1433.2 23.65L1433.2 -20.35zM1509.41 551.65L1547.52 573.65L1547.52 617.65L1509.41 639.65L1471.31 617.65L1471.31 573.65zM1471.31 749.65L1509.41 771.65L1509.41 815.65L1471.31 837.65L1433.2 815.65L1433.2 771.65zM1509.41 815.65L1547.52 837.65L1547.52 881.65L1509.41 903.65L1471.31 881.65L1471.31 837.65zM1509.41 947.65L1547.52 969.65L1547.52 1013.65L1509.41 1035.65L1471.31 1013.65L1471.31 969.65zM1471.31 1013.65L1509.41 1035.65L1509.41 1079.65L1471.31 1101.65L1433.2 1079.65L1433.2 1035.65zM1661.84 155.65L1699.94 177.65L1699.94 221.65L1661.84 243.65L1623.73 221.65L1623.73 177.65zM1623.73 1013.65L1661.84 1035.65L1661.84 1079.65L1623.73 1101.65L1585.62 1079.65L1585.62 1035.65zM1699.94 485.65L1738.05 507.65L1738.05 551.65L1699.94 573.65L1661.84 551.65L1661.84 507.65zM1776.16 485.65L1814.26 507.65L1814.26 551.65L1776.16 573.65L1738.05 551.65L1738.05 507.65zM1776.16 749.65L1814.26 771.65L1814.26 815.65L1776.16 837.65L1738.05 815.65L1738.05 771.65zM1776.16 881.65L1814.26 903.65L1814.26 947.65L1776.16 969.65L1738.05 947.65L1738.05 903.65zM1852.37 485.65L1890.47 507.65L1890.47 551.65L1852.37 573.65L1814.26 551.65L1814.26 507.65zM1852.37 749.65L1890.47 771.65L1890.47 815.65L1852.37 837.65L1814.26 815.65L1814.26 771.65zM1966.69 551.65L2004.79 573.65L2004.79 617.65L1966.69 639.65L1928.58 617.65L1928.58 573.65z" stroke="rgba(6, 80, 156, 0.93)" stroke-width="2"></path></g><defs><mask id="SvgjsMask1110"><rect width="2048" height="1080" fill="#ffffff"></rect></mask></defs></svg>